<?xml version="1.0" encoding="utf-8"?>
<!-- Generator: Adobe Illustrator 16.0.0, SVG Export Plug-In . SVG Version: 6.00 Build 0)  -->
<!DOCTYPE svg PUBLIC "-//W3C//DTD SVG 1.1//EN" "http://www.w3.org/Graphics/SVG/1.1/DTD/svg11.dtd">
<svg version="1.1" id="Layer_1" xmlns="http://www.w3.org/2000/svg" xmlns:xlink="http://www.w3.org/1999/xlink" x="0px" y="0px"
	 width="70px" height="70px" viewBox="0 0 70 70" enable-background="new 0 0 70 70" xml:space="preserve">
<g>
	<path d="M46.991,39.583h-23.75c-0.7,0-1.349,0.6-1.711,1.197c-0.362,0.6-0.386,1.565-0.062,2.186l11.875,22.713
		c0.345,0.66,1.028,1.077,1.772,1.077s1.427-0.464,1.772-1.124l11.875-22.759c0.324-0.62,0.301-1.493-0.063-2.093
		C48.341,40.183,47.69,39.583,46.991,39.583z M40.604,49.507l-7.207,7.22l-1.089-2.077L43.206,43.73
		c0.037-0.037,0.053-0.147,0.082-0.147h0.4L40.604,49.507z M29.905,50.034l6.426-6.451h4.172l-9.166,9.178L29.905,50.034z
		 M33.502,43.583l-4.569,4.568l-2.389-4.568H33.502z M35.117,60.026l-0.748-1.43l3.136-3.136L35.117,60.026z"/>
	<path d="M44.903,18.262c0.672-1.38,1.059-2.923,1.059-4.559c0-5.769-4.693-10.462-10.462-10.462
		c-5.769,0-10.462,4.693-10.462,10.462c0,1.64,0.39,3.186,1.065,4.568c-0.201-0.011-0.399-0.03-0.603-0.03
		c-5.769,0-10.462,4.693-10.462,10.462S19.731,39.165,25.5,39.165c4.213,0,7.843-2.508,9.5-6.105
		c1.657,3.597,5.286,6.105,9.499,6.105c5.77,0,10.463-4.693,10.463-10.462C54.962,23.07,50.485,18.476,44.903,18.262z M35,24.347
		c-0.033-0.071-0.068-0.142-0.103-0.212c0.066,0.003,0.133,0.007,0.2,0.01C35.065,24.212,35.031,24.279,35,24.347z M35.5,7.241
		c3.563,0,6.462,2.898,6.462,6.462s-2.898,6.462-6.462,6.462s-6.462-2.898-6.462-6.462S31.937,7.241,35.5,7.241z M25.5,35.165
		c-3.563,0-6.462-2.898-6.462-6.462s2.899-6.462,6.462-6.462s6.462,2.898,6.462,6.462S29.063,35.165,25.5,35.165z M44.499,35.165
		c-3.563,0-6.461-2.898-6.461-6.462s2.899-6.462,6.461-6.462c3.564,0,6.463,2.898,6.463,6.462S48.063,35.165,44.499,35.165z"/>
	<path d="M25.5,23.304c-2.978,0-5.4,2.422-5.4,5.399c0,0.553,0.448,1,1,1s1-0.447,1-1c0-1.874,1.525-3.399,3.4-3.399
		c0.552,0,1-0.447,1-1S26.052,23.304,25.5,23.304z"/>
	<path d="M34.863,10.349c0.047,0,0.094-0.003,0.142-0.01c0.161-0.022,0.327-0.035,0.495-0.035c0.552,0,1-0.447,1-1s-0.448-1-1-1
		c-0.263,0-0.522,0.019-0.775,0.055c-0.547,0.077-0.927,0.584-0.85,1.13C33.945,9.988,34.374,10.349,34.863,10.349z"/>
	<path d="M32.1,13.703c0-0.954,0.385-1.838,1.083-2.487c0.404-0.377,0.427-1.009,0.051-1.414c-0.376-0.403-1.01-0.425-1.413-0.051
		c-1.094,1.018-1.721,2.458-1.721,3.952c0,0.553,0.448,1,1,1S32.1,14.256,32.1,13.703z"/>
	<path d="M44.499,23.304c-2.977,0-5.398,2.422-5.398,5.399c0,0.553,0.447,1,1,1c0.551,0,1-0.447,1-1
		c0-1.874,1.525-3.399,3.398-3.399c0.553,0,1-0.447,1-1S45.052,23.304,44.499,23.304z"/>
</g>
</svg>
