<?xml version="1.0" encoding="utf-8"?>
<!-- Generator: Adobe Illustrator 16.0.0, SVG Export Plug-In . SVG Version: 6.00 Build 0)  -->
<!DOCTYPE svg PUBLIC "-//W3C//DTD SVG 1.1//EN" "http://www.w3.org/Graphics/SVG/1.1/DTD/svg11.dtd">
<svg version="1.1" id="Layer_1" xmlns="http://www.w3.org/2000/svg" xmlns:xlink="http://www.w3.org/1999/xlink" x="0px" y="0px"
	 width="70px" height="70px" viewBox="0 0 70 70" enable-background="new 0 0 70 70" xml:space="preserve">
<g>
	<path d="M18.779,43.991c-0.137-0.316-0.262-0.641-0.372-0.971c-0.175-0.523-0.735-0.809-1.265-0.631
		c-0.523,0.174-0.807,0.74-0.632,1.264c0.128,0.385,0.272,0.762,0.433,1.131c0.163,0.379,0.531,0.604,0.918,0.604
		c0.133,0,0.268-0.025,0.396-0.082C18.765,45.087,18.998,44.499,18.779,43.991z"/>
	<path d="M30.177,51.565c-3.877,0-7.469-1.799-9.854-4.934c-0.335-0.439-0.963-0.523-1.401-0.189c-0.439,0.334-0.524,0.961-0.19,1.4
		c2.767,3.637,6.938,5.723,11.445,5.723c0.553,0,1-0.447,1-1S30.729,51.565,30.177,51.565z"/>
	<path d="M52.393,62.583h-42c-1.104,0-2,0.895-2,2c0,1.104,0.896,2,2,2h42c1.104,0,2-0.896,2-2
		C54.393,63.478,53.497,62.583,52.393,62.583z"/>
	<path d="M61.745,29.704c-0.099-1.025-0.961-2.121-1.991-2.121h-7.171v-0.916c0-2.209-1.072-5.084-3.281-5.084H11.325
		c-2.209,0-3.742,1.875-3.742,4.084v12.377c0,12.4,10.296,22.488,22.696,22.488c8.55,0,16.103-4.797,19.909-11.838
		c2.014-0.297,7.931-1.462,10.116-4.376C62.593,41.268,61.997,32.324,61.745,29.704z M11.583,31.583h37v4h-37V31.583z
		 M48.583,25.583v4h-37v-4H48.583z M30.083,56.532c-10.21,0-18.5-8.277-18.5-18.488v-0.461h37v0.461
		C48.583,48.255,40.293,56.532,30.083,56.532z M57.154,41.762c-0.693,0.924-3.109,1.881-5.261,2.463
		c0.572-1.98,0.689-4.019,0.689-6.18v-6.461h5.321C58.163,36.583,57.956,40.691,57.154,41.762z"/>
	<path d="M29.583,20.208c1.104,0,2-0.896,2-2v-13c0-1.104-0.896-2-2-2s-2,0.896-2,2v13C27.583,19.313,28.479,20.208,29.583,20.208z"
		/>
	<path d="M39.583,20.208c1.104,0,2-0.896,2-2v-13c0-1.104-0.896-2-2-2s-2,0.896-2,2v13C37.583,19.313,38.479,20.208,39.583,20.208z"
		/>
	<path d="M19.583,20.208c1.104,0,2-0.896,2-2v-13c0-1.104-0.896-2-2-2s-2,0.896-2,2v13C17.583,19.313,18.479,20.208,19.583,20.208z"
		/>
</g>
</svg>
