<?xml version="1.0" encoding="utf-8"?>
<!-- Generator: Adobe Illustrator 16.0.0, SVG Export Plug-In . SVG Version: 6.00 Build 0)  -->
<!DOCTYPE svg PUBLIC "-//W3C//DTD SVG 1.1//EN" "http://www.w3.org/Graphics/SVG/1.1/DTD/svg11.dtd">
<svg version="1.1" id="Layer_1" xmlns="http://www.w3.org/2000/svg" xmlns:xlink="http://www.w3.org/1999/xlink" x="0px" y="0px"
	 width="70px" height="70px" viewBox="0 0 70 70" enable-background="new 0 0 70 70" xml:space="preserve">
<g>
	<path d="M48.198,7.152L48.198,7.152 M48.051,6.334l-7.455,26.249h11.066L27.051,62.63l4.829-26.047H18.338L48.051,6.334
		 M48.052,2.583c-0.049,0-0.098,0.203-0.147,0.205c-0.84,0.03-1.613,0.419-2.244,0.89c-0.156,0.117-0.306,0.296-0.446,0.438
		l-29.713,29.92c-1.139,1.146-1.477,2.729-0.856,4.22c0.621,1.492,2.078,2.328,3.693,2.328h8.744l-3.966,21.83
		c-0.327,1.791,0.595,3.649,2.243,4.419c0.543,0.254,1.119,0.413,1.689,0.413c1.164,0,2.303-0.489,3.081-1.43l24.612-29.682
		c0.989-1.193,1.199-3.351,0.54-4.753c-0.659-1.403-2.07-2.797-3.62-2.797h-5.791l5.988-20.867c0.126-0.388,0.194-0.752,0.194-1.184
		c0-2.182-1.744-3.949-3.915-3.949C48.11,2.583,48.081,2.583,48.052,2.583L48.052,2.583z"/>
	<g>
		<path d="M27.051,34.282c-0.244,0-0.488-0.089-0.681-0.268c-0.404-0.375-0.428-1.008-0.052-1.413l13-14
			c0.375-0.405,1.009-0.428,1.413-0.052c0.404,0.375,0.428,1.008,0.052,1.413l-13,14C27.587,34.175,27.319,34.282,27.051,34.282z"/>
	</g>
	<g>
		<path d="M40.161,42.282c-0.214,0-0.431-0.068-0.613-0.211c-0.436-0.339-0.515-0.967-0.175-1.403l3.889-5
			c0.339-0.435,0.967-0.515,1.403-0.175c0.436,0.339,0.515,0.967,0.175,1.403l-3.889,5C40.754,42.149,40.459,42.282,40.161,42.282z"
			/>
	</g>
	<g>
		<path d="M37.05,46.282c-0.214,0-0.431-0.068-0.612-0.211c-0.437-0.339-0.516-0.967-0.176-1.402l0.777-1
			c0.337-0.436,0.968-0.518,1.402-0.176c0.437,0.339,0.516,0.967,0.176,1.402l-0.777,1C37.644,46.149,37.349,46.282,37.05,46.282z"
			/>
	</g>
</g>
</svg>
