<?xml version="1.0" encoding="utf-8"?>
<!-- Generator: Adobe Illustrator 16.0.0, SVG Export Plug-In . SVG Version: 6.00 Build 0)  -->
<!DOCTYPE svg PUBLIC "-//W3C//DTD SVG 1.1//EN" "http://www.w3.org/Graphics/SVG/1.1/DTD/svg11.dtd">
<svg version="1.1" id="Layer_1" xmlns="http://www.w3.org/2000/svg" xmlns:xlink="http://www.w3.org/1999/xlink" x="0px" y="0px"
	 width="70px" height="70px" viewBox="0 0 70 70" enable-background="new 0 0 70 70" xml:space="preserve">
<g>
	<path d="M60.991,2.583H45.938c-0.69,0-1.331,0.564-1.697,1.15l-4.855,7.85H11.009c-1.606,0-3.057,1.144-3.684,2.623
		s-0.307,3.281,0.812,4.436l20.66,21.349c0.233,0.24,0.785,0.464,0.785,0.638v21.955H17.991c-1.104,0-2,0.895-2,2
		c0,1.104,0.896,2,2,2h28c1.104,0,2-0.896,2-2c0-1.105-0.896-2-2-2H33.583V40.737c0-0.189,0.676-0.416,0.958-0.707l20.653-21.3
		c1.118-1.153,1.437-3.046,0.811-4.525s-2.078-2.622-3.685-2.622h-8.364l3.092-5h13.943c1.104,0,2-0.896,2-2
		S62.096,2.583,60.991,2.583z M36.912,15.583l-2.621,4.343c-0.781-0.182-1.58-0.325-2.408-0.544
		c-6.065-1.602-11.709,0.979-14.631,2.781l-6.242-6.58H36.912z M31.56,37.199L18.679,23.78c2.731-1.606,7.621-3.756,12.693-2.413
		c0.618,0.163,1.218,0.313,1.809,0.457l-3.913,6.326c-0.585,0.938-0.299,2.171,0.638,2.756c0.329,0.205,0.695,0.303,1.057,0.303
		c0.667,0,1.32-0.542,1.699-1.15l4.56-7.375c3.093,0.554,5.704,0.751,7.83,0.6L31.56,37.199z M51.574,15.583l0.537,0.313
		l-4.684,4.883c-1.963,0.659-5.065,0.579-9.067-0.068l3.123-5.127H51.574z"/>
	<path d="M24.23,24.298c-0.19,0.18-0.29,0.44-0.29,0.71c0,0.26,0.1,0.52,0.29,0.7c0.19,0.189,0.45,0.3,0.71,0.3
		c0.26,0,0.52-0.11,0.7-0.3c0.19-0.181,0.3-0.44,0.3-0.7c0-0.27-0.11-0.52-0.3-0.71C25.271,23.928,24.61,23.928,24.23,24.298z"/>
	<path d="M29.94,24.008c0.26,0,0.52-0.11,0.7-0.3c0.19-0.181,0.3-0.44,0.3-0.7c0-0.27-0.11-0.53-0.3-0.71
		c-0.36-0.37-1.05-0.37-1.41,0c-0.19,0.19-0.29,0.44-0.29,0.71c0,0.26,0.1,0.52,0.29,0.7C29.411,23.898,29.67,24.008,29.94,24.008z"
		/>
	<path d="M31.23,33.298c-0.19,0.18-0.29,0.44-0.29,0.71c0,0.26,0.1,0.52,0.29,0.7c0.19,0.189,0.45,0.3,0.71,0.3
		c0.26,0,0.52-0.11,0.71-0.3c0.18-0.181,0.29-0.44,0.29-0.7c0-0.27-0.11-0.53-0.3-0.71C32.271,32.928,31.601,32.928,31.23,33.298z"
		/>
	<path d="M36.23,26.298c-0.189,0.18-0.289,0.44-0.289,0.71c0,0.26,0.1,0.52,0.289,0.7c0.19,0.189,0.44,0.3,0.711,0.3
		c0.26,0,0.52-0.11,0.709-0.3c0.181-0.181,0.291-0.44,0.291-0.7c0-0.27-0.11-0.52-0.291-0.71
		C37.281,25.928,36.611,25.918,36.23,26.298z"/>
</g>
</svg>
