<?xml version="1.0" encoding="utf-8"?>
<!-- Generator: Adobe Illustrator 16.0.0, SVG Export Plug-In . SVG Version: 6.00 Build 0)  -->
<!DOCTYPE svg PUBLIC "-//W3C//DTD SVG 1.1//EN" "http://www.w3.org/Graphics/SVG/1.1/DTD/svg11.dtd">
<svg version="1.1" id="Layer_1" xmlns="http://www.w3.org/2000/svg" xmlns:xlink="http://www.w3.org/1999/xlink" x="0px" y="0px"
	 width="70px" height="70px" viewBox="0 0 70 70" enable-background="new 0 0 70 70" xml:space="preserve">
<g>
	<path d="M65.395,6.077c-0.148-0.821-0.791-1.464-1.612-1.612c-0.206-0.038-5.126-0.914-11.318-0.914
		c-9.855,0-16.997,2.144-21.225,6.373l-0.537,0.536c-2.187,2.183-4.851,4.846-7.267,7.703c-2.254-0.093-10.986-0.071-14.767,5.473
		C4.797,29.314,3.75,35.895,3.708,36.172c-0.083,0.536,0.056,1.083,0.384,1.515s0.817,0.712,1.355,0.776l12.613,1.505
		c0.827,2.252,1.948,4.312,3.194,5.932l-3.074,3.073c-0.781,0.781-0.781,2.047,0,2.828c0.391,0.391,0.902,0.586,1.414,0.586
		s1.023-0.195,1.414-0.586l3.09-3.09c1.711,1.293,3.817,2.389,6.047,3.178l1.525,12.797c0.064,0.539,0.345,1.028,0.776,1.356
		c0.351,0.266,0.775,0.407,1.21,0.407c0.102,0,0.203-0.008,0.305-0.023c0.277-0.043,6.857-1.091,12.536-4.962
		c6.127-4.178,5.509-14.407,5.447-15.248c2.754-2.354,5.318-4.918,7.432-7.035l0.56-0.561C69.433,29.123,65.564,7.014,65.395,6.077z
		 M61.671,8.188c0.294,2.15,0.769,6.524,0.604,11.313c-2.305-0.896-5.909-3.773-9.127-7.392c-1.656-1.862-2.734-3.401-3.347-4.494
		c0.917-0.043,1.812-0.064,2.663-0.064C56.396,7.551,59.839,7.936,61.671,8.188z M8.108,34.752c0.563-2.172,1.727-5.725,3.865-8.862
		c1.677-2.459,5.383-3.379,8.334-3.653c-1.765,2.594-3.086,5.237-3.482,7.747c-0.296,1.883-0.222,3.867,0.114,5.821L8.108,34.752z
		 M44.243,58.159c-3.138,2.139-6.691,3.303-8.862,3.865l-1.079-9.058c1.061,0.174,2.111,0.269,3.122,0.269
		c0.853,0,1.683-0.063,2.467-0.188c2.604-0.413,5.356-1.834,8.047-3.708C47.726,52.353,46.853,56.38,44.243,58.159z M57.107,35.792
		l-0.563,0.563c-4.435,4.443-11.858,11.881-17.281,12.741c-3.693,0.596-8.913-0.889-12.302-3.248l10.154-10.154
		c0.781-0.781,0.781-2.047,0-2.828s-2.047-0.781-2.828,0L24.114,43.039c-2.264-3.179-3.984-8.32-3.337-12.434
		c0.858-5.441,8.303-12.874,12.751-17.314l0.539-0.539c3.221-3.22,8.561-4.534,13.569-4.991c0.854,1.936,2.737,4.238,4.018,5.677
		c2.979,3.351,7.272,7.184,10.508,8.134C61.759,26.92,60.441,32.458,57.107,35.792z"/>
	<path d="M33.243,16.334l-0.384,0.384c-3.601,3.595-9.042,9.027-9.777,13.688c-0.087,0.546,0.286,1.058,0.831,1.144
		c0.053,0.009,0.105,0.013,0.157,0.013c0.483,0,0.909-0.352,0.986-0.844c0.635-4.019,6.006-9.382,9.216-12.586l0.385-0.385
		c0.391-0.391,0.391-1.023,0-1.414S33.633,15.943,33.243,16.334z"/>
	<path d="M24.477,55.425c-2.446,2.446-8.259,2.362-11.533,1.992c-0.371-3.275-0.454-9.088,1.992-11.534
		c0.781-0.78,0.781-2.047,0-2.828s-2.047-0.781-2.828,0c-4.841,4.84-3.112,15.308-2.899,16.485c0.148,0.821,0.791,1.464,1.612,1.612
		c0.513,0.093,2.785,0.473,5.588,0.473c3.636,0,8.163-0.639,10.896-3.372c0.781-0.78,0.781-2.047,0-2.828
		S25.258,54.644,24.477,55.425z"/>
	<path d="M45.365,17.845c-3.859,0-7,3.141-7,7s3.14,7,7,7s7-3.141,7-7S49.225,17.845,45.365,17.845z M45.365,29.845
		c-2.757,0-5-2.243-5-5s2.243-5,5-5s5,2.243,5,5S48.122,29.845,45.365,29.845z"/>
</g>
</svg>
