<?xml version="1.0" encoding="utf-8"?>
<!-- Generator: Adobe Illustrator 16.0.0, SVG Export Plug-In . SVG Version: 6.00 Build 0)  -->
<!DOCTYPE svg PUBLIC "-//W3C//DTD SVG 1.1//EN" "http://www.w3.org/Graphics/SVG/1.1/DTD/svg11.dtd">
<svg version="1.1" id="Layer_1" xmlns="http://www.w3.org/2000/svg" xmlns:xlink="http://www.w3.org/1999/xlink" x="0px" y="0px"
	 width="70px" height="70px" viewBox="0 0 70 70" enable-background="new 0 0 70 70" xml:space="preserve">
<g>
	<path d="M35,7c15.465,0,28,12.535,28,28S50.465,63,35,63S7,50.465,7,35S19.535,7,35,7 M35,3C17.355,3,3,17.355,3,35
		s14.355,32,32,32s32-14.355,32-32S52.645,3,35,3L35,3z"/>
	<g>
		<path d="M35,29c3.314,0,6,2.686,6,6s-2.686,6-6,6s-6-2.686-6-6S31.686,29,35,29 M35,27c-4.411,0-8,3.589-8,8s3.589,8,8,8
			s8-3.589,8-8S39.411,27,35,27L35,27z"/>
	</g>
	<g>
		<path d="M43.959,57.019c-0.774,0-1.554-0.128-2.315-0.381l-0.597-0.198c-1.57-0.521-3.774-0.82-6.047-0.82
			s-4.477,0.299-6.047,0.82l-0.597,0.198c-0.762,0.253-1.541,0.381-2.315,0.381c-3.265,0-6.017-2.295-6.693-5.583l-0.126-0.616
			c-0.111-0.537-0.592-1.197-1.102-1.896c-0.439-0.604-0.895-1.228-1.232-1.925c-0.302-0.622-0.583-1.252-0.861-1.874
			c-0.854-1.913-1.661-3.72-2.853-4.777l-0.47-0.42c-1.549-1.376-2.402-3.223-2.401-5.199c0-1.977,0.853-3.823,2.402-5.2
			l0.468-0.417c0.28-0.25,0.255-1.438,0.237-2.223c-0.027-1.275-0.06-2.722,0.614-3.812c0.762-1.233,2.027-1.988,3.144-2.654
			c0.988-0.59,1.922-1.146,2.054-1.788l0.126-0.613c0.676-3.287,3.429-5.583,6.693-5.583c0.774,0,1.554,0.128,2.315,0.381
			l0.597,0.198c0.674,0.226,1.608-0.175,2.623-0.55c0.998-0.369,2.128-0.884,3.405-0.884c0.002,0,0.003,0,0.004,0
			c1.21,0,2.333,0.459,3.42,0.833c1.066,0.367,2.126,0.739,2.642,0.565l0.597-0.18c0.762-0.253,1.541-0.371,2.315-0.371
			c3.265,0,6.018,2.299,6.693,5.586l0.126,0.617c0.118,0.571,0.925,1.143,1.779,1.747c0.95,0.671,2.028,1.434,2.673,2.554
			c0.643,1.114,0.786,2.454,0.914,3.637c0.112,1.051,0.229,2.137,0.682,2.54l0.47,0.419c1.549,1.376,2.401,3.223,2.401,5.199
			c0.001,1.977-0.853,3.823-2.402,5.2l-0.468,0.417c-0.546,0.485-0.841,1.658-1.127,2.792c-0.279,1.109-0.568,2.257-1.143,3.252
			c-0.596,1.032-1.442,1.789-2.188,2.458c-0.779,0.697-1.452,1.299-1.591,1.974l-0.126,0.613
			C49.977,54.723,47.224,57.019,43.959,57.019z M35,53.619c2.515,0,4.887,0.327,6.678,0.922l0.597,0.198
			c0.558,0.186,1.125,0.279,1.685,0.279c2.341,0,4.244-1.602,4.734-3.985l0.126-0.614c0.272-1.322,1.261-2.207,2.216-3.062
			c0.666-0.597,1.354-1.213,1.79-1.968c0.436-0.754,0.69-1.764,0.936-2.74c0.36-1.428,0.732-2.904,1.737-3.798l0.468-0.416
			c1.117-0.993,1.732-2.31,1.731-3.707c0-1.397-0.614-2.714-1.73-3.706l-0.47-0.419c-1.029-0.914-1.188-2.391-1.342-3.818
			c-0.111-1.034-0.226-2.104-0.657-2.854c-0.426-0.738-1.274-1.338-2.095-1.917c-1.134-0.802-2.307-1.63-2.584-2.976l-0.126-0.615
			c-0.49-2.384-2.394-3.985-4.734-3.985c-0.56,0-1.127,0.094-1.685,0.279l-0.597,0.198c-0.302,0.1-0.636,0.15-0.991,0.15
			c-0.935,0-1.905-0.333-2.932-0.687c-0.933-0.32-1.896-0.652-2.687-0.652c-0.988,0.018-1.908,0.358-2.798,0.688
			c-0.905,0.335-1.841,0.682-2.801,0.682l0,0c-0.399,0-0.786-0.061-1.147-0.181l-0.597-0.198c-0.558-0.186-1.125-0.279-1.685-0.279
			c-2.341,0-4.244,1.602-4.734,3.985l-0.126,0.614c-0.31,1.505-1.671,2.316-2.987,3.103c-0.965,0.575-1.962,1.171-2.468,1.988
			c-0.362,0.586-0.338,1.718-0.315,2.716c0.031,1.425,0.063,2.897-0.908,3.761l-0.468,0.416c-1.117,0.993-1.731,2.31-1.731,3.707
			c-0.001,1.397,0.614,2.714,1.73,3.706l0.47,0.419c1.513,1.343,2.405,3.341,3.35,5.456c0.27,0.603,0.542,1.214,0.834,1.816
			c0.261,0.536,0.662,1.087,1.05,1.619c0.612,0.84,1.245,1.709,1.444,2.672l0.126,0.617c0.49,2.383,2.394,3.984,4.734,3.984
			c0.56,0,1.127-0.094,1.685-0.279l0.597-0.198C30.113,53.946,32.485,53.619,35,53.619z"/>
	</g>
	<g>
		<path d="M32.878,19.873c-0.02,0-0.039-0.001-0.059-0.002l-2.502-0.145c-0.552-0.031-0.973-0.504-0.94-1.056
			c0.031-0.553,0.503-0.974,1.056-0.94l2.502,0.145c0.552,0.031,0.973,0.504,0.94,1.056C33.845,19.463,33.403,19.873,32.878,19.873z
			"/>
	</g>
	<g>
		<path d="M46.058,31.918c-0.152,0-0.307-0.035-0.452-0.108c-0.492-0.25-0.688-0.852-0.438-1.345l1.135-2.234
			c0.25-0.492,0.85-0.688,1.345-0.438c0.492,0.25,0.688,0.852,0.438,1.345l-1.135,2.234C46.773,31.718,46.423,31.918,46.058,31.918z
			"/>
	</g>
	<g>
		<path d="M20.075,37.928c-0.146,0-0.296-0.032-0.438-0.102c-0.496-0.242-0.702-0.841-0.46-1.337l1.1-2.254
			c0.242-0.496,0.838-0.704,1.337-0.46c0.496,0.242,0.702,0.841,0.46,1.337l-1.1,2.254C20.802,37.722,20.445,37.928,20.075,37.928z"
			/>
	</g>
	<g>
		<path d="M27.731,50.392c-0.159,0-0.32-0.038-0.47-0.118l-2.211-1.181c-0.487-0.26-0.672-0.865-0.411-1.353
			c0.26-0.488,0.868-0.671,1.353-0.411l2.211,1.181c0.487,0.26,0.672,0.865,0.411,1.353C28.435,50.2,28.089,50.392,27.731,50.392z"
			/>
	</g>
	<g>
		<path d="M39.07,47.974c-0.403,0-0.784-0.246-0.936-0.646l-0.887-2.345c-0.195-0.517,0.065-1.094,0.582-1.289
			c0.513-0.193,1.094,0.064,1.289,0.582l0.887,2.345c0.195,0.517-0.065,1.094-0.582,1.289C39.308,47.953,39.188,47.974,39.07,47.974
			z"/>
	</g>
	<g>
		<path d="M42.418,52.134c-0.438,0-0.841-0.291-0.963-0.734c-0.146-0.533,0.166-1.083,0.698-1.229l2.417-0.665
			c0.53-0.147,1.083,0.166,1.229,0.698c0.146,0.533-0.166,1.083-0.698,1.229l-2.417,0.665
			C42.596,52.122,42.506,52.134,42.418,52.134z"/>
	</g>
	<g>
		<path d="M49.418,35.134c-0.438,0-0.841-0.291-0.963-0.734c-0.146-0.533,0.166-1.083,0.698-1.229l2.417-0.665
			c0.531-0.148,1.083,0.166,1.229,0.698c0.146,0.533-0.166,1.083-0.698,1.229l-2.417,0.665
			C49.596,35.122,49.506,35.134,49.418,35.134z"/>
	</g>
	<g>
		<path d="M19.557,30.645c-0.24,0-0.481-0.086-0.673-0.26l-1.855-1.687c-0.408-0.372-0.438-1.004-0.067-1.413
			c0.372-0.408,1.006-0.438,1.413-0.067l1.855,1.687c0.408,0.372,0.438,1.004,0.067,1.413C20.1,30.534,19.828,30.645,19.557,30.645z
			"/>
	</g>
	<g>
		<path d="M42.07,23.974c-0.403,0-0.784-0.246-0.936-0.646l-0.887-2.345c-0.195-0.517,0.065-1.094,0.582-1.289
			c0.513-0.192,1.094,0.064,1.289,0.582l0.887,2.345c0.195,0.517-0.065,1.094-0.582,1.289C42.308,23.953,42.188,23.974,42.07,23.974
			z"/>
	</g>
	<g>
		<path d="M25.07,25.974c-0.403,0-0.784-0.246-0.936-0.646l-0.887-2.345c-0.195-0.517,0.065-1.094,0.582-1.289
			c0.513-0.193,1.094,0.065,1.289,0.582l0.887,2.345c0.195,0.517-0.065,1.094-0.582,1.289C25.308,25.953,25.188,25.974,25.07,25.974
			z"/>
	</g>
	<g>
		<path d="M25.07,42.974c-0.403,0-0.784-0.246-0.936-0.646l-0.887-2.345c-0.195-0.517,0.065-1.094,0.582-1.289
			c0.513-0.193,1.094,0.064,1.289,0.582l0.887,2.345c0.195,0.517-0.065,1.094-0.582,1.289C25.308,42.953,25.188,42.974,25.07,42.974
			z"/>
	</g>
	<g>
		<path d="M45.843,42.779c-0.219,0-0.439-0.072-0.624-0.22c-0.432-0.346-0.501-0.975-0.155-1.405l1.567-1.956
			c0.345-0.431,0.975-0.5,1.405-0.155c0.432,0.346,0.501,0.975,0.155,1.405l-1.567,1.956C46.427,42.651,46.136,42.779,45.843,42.779
			z"/>
	</g>
</g>
</svg>
